<?xml version="1.0" encoding="UTF-8"?>
<svg version="1.1" xmlns="http://www.w3.org/2000/svg" width="466" height="342">
<path d="M0 0 C153.78 0 307.56 0 466 0 C466 112.86 466 225.72 466 342 C312.22 342 158.44 342 0 342 C0 229.14 0 116.28 0 0 Z " fill="#5C9F37" transform="translate(0,0)"/>
<path d="M0 0 C8.23024482 6.57606052 14.35697424 15.5967192 16.6640625 25.9921875 C18.23841465 40.08813117 17.04099884 52.97517077 8.125 64.5625 C6.78158695 66.0704126 5.40883096 67.55301888 4 69 C3.46761719 69.57105469 2.93523437 70.14210938 2.38671875 70.73046875 C-5.64074252 78.4790604 -16.09419839 81.70917862 -27 82 C-27 75.73 -27 69.46 -27 63 C-28.32 63 -29.64 63 -31 63 C-31 69.27 -31 75.54 -31 82 C-43.52779952 82 -52.94316923 76.74778657 -62.125 68.5 C-72.38456916 57.89090644 -74.49361281 45.1184116 -74.26953125 31 C-73.81327449 18.8990817 -67.48378823 8.88743809 -58.75 0.6875 C-40.89817797 -13.4060437 -18.25172416 -13.55929424 0 0 Z " fill="#FAFDF8" transform="translate(260,62)"/>
<path d="M0 0 C1.16660156 0.00322266 2.33320313 0.00644531 3.53515625 0.00976562 C4.75847656 0.01814453 5.98179687 0.02652344 7.2421875 0.03515625 C8.47324219 0.03966797 9.70429688 0.04417969 10.97265625 0.04882812 C14.02088142 0.06064295 17.06901064 0.07711597 20.1171875 0.09765625 C20.1171875 2.07765625 20.1171875 4.05765625 20.1171875 6.09765625 C19.1271875 6.42765625 18.1371875 6.75765625 17.1171875 7.09765625 C17.6121875 8.08765625 17.6121875 8.08765625 18.1171875 9.09765625 C18.72909502 13.95795025 19.10519238 18.56671404 15.9921875 22.59765625 C10.04513255 27.76900838 3.68623783 27.60859685 -3.8828125 27.09765625 C-4.8728125 26.76765625 -5.8628125 26.43765625 -6.8828125 26.09765625 C-6.5528125 27.08765625 -6.2228125 28.07765625 -5.8828125 29.09765625 C-3.84438628 30.01024866 -3.84438628 30.01024866 -1.33203125 30.5625 C-0.40583984 30.80548828 0.52035156 31.04847656 1.47460938 31.29882812 C3.43271155 31.78673594 5.39104249 32.27372662 7.34960938 32.75976562 C16.60628316 35.19100566 16.60628316 35.19100566 19.1171875 39.09765625 C19.8562443 42.48862275 19.67532956 45.68045995 19.1171875 49.09765625 C16.56773463 53.01989144 13.5070752 53.86055353 9.1171875 55.09765625 C0.40821679 55.86756526 -6.34291983 55.60625494 -13.7578125 50.91015625 C-15.63351091 47.8881977 -15.91698859 44.58361766 -15.8828125 41.09765625 C-15.26936493 39.41067543 -14.61185336 37.73799818 -13.8828125 36.09765625 C-14.24988867 34.2104597 -14.24988867 34.2104597 -14.8828125 32.09765625 C-15.10182708 28.24925716 -15.11458636 24.79297782 -13.8828125 21.09765625 C-14.2128125 20.43765625 -14.5428125 19.77765625 -14.8828125 19.09765625 C-16.21741628 8.96680029 -16.21741628 8.96680029 -13.390625 5.0078125 C-8.91833821 1.21286375 -5.87616319 -0.02852506 0 0 Z " fill="#F5FAF1" transform="translate(181.8828125,168.90234375)"/>
<path d="M0 0 C0.93585938 -0.0309375 1.87171875 -0.061875 2.8359375 -0.09375 C6.80858825 0.75196837 8.05146511 2.36398218 10.625 5.5 C11.92941328 8.57390432 12.72376644 11.7267736 13.51953125 14.96484375 C13.75661301 15.87577286 13.99369476 16.78670197 14.23796082 17.72523499 C14.73410387 19.64538066 15.22192915 21.56769255 15.7019043 23.49194336 C16.43534182 26.42885798 17.1948295 29.35805384 17.95898438 32.28710938 C18.43904422 34.1584587 18.91761042 36.03019197 19.39453125 37.90234375 C19.61945755 38.7743895 19.84438385 39.64643524 20.0761261 40.54490662 C21.17048997 44.96483416 21.89181347 48.906229 21.625 53.5 C18.325 53.5 15.025 53.5 11.625 53.5 C10.635 48.88 9.645 44.26 8.625 39.5 C3.015 39.5 -2.595 39.5 -8.375 39.5 C-8.49875 40.86125 -8.6225 42.2225 -8.75 43.625 C-9.16937968 47.47235271 -9.97934547 50.87129822 -11.375 54.5 C-14.675 54.5 -17.975 54.5 -21.375 54.5 C-21.375 49.91241539 -20.8724803 47.67996035 -19.375 43.5 C-18.74441599 41.23912974 -18.13223761 38.9730731 -17.53515625 36.703125 C-17.36753281 36.06945007 -17.19990936 35.43577515 -17.02720642 34.78289795 C-16.49548211 32.7724076 -15.96621227 30.76128438 -15.4375 28.75 C-14.09936893 23.66225616 -12.74725621 18.57868299 -11.375 13.5 C-11.1054248 12.48486328 -10.83584961 11.46972656 -10.55810547 10.42382812 C-10.3107666 9.53630859 -10.06342773 8.64878906 -9.80859375 7.734375 C-9.60161865 6.97866211 -9.39464355 6.22294922 -9.18139648 5.44433594 C-7.27730939 0.85331273 -4.77452969 0.05232361 0 0 Z " fill="#F5FAF2" transform="translate(142.375,155.5)"/>
<path d="M0 0 C4.39179749 1.61874962 7.09672293 3.87090366 10 7.5 C11.57679179 13.01877127 11.17522148 18.27609835 11 24 C3.08 24 -4.84 24 -13 24 C-11.59628479 29.7018576 -11.59628479 29.7018576 -9 32 C-6.96532566 32.27686065 -6.96532566 32.27686065 -4.6484375 32.1953125 C-3.37226563 32.18564453 -3.37226563 32.18564453 -2.0703125 32.17578125 C-1.18085938 32.15902344 -0.29140625 32.14226562 0.625 32.125 C1.5221875 32.11597656 2.419375 32.10695312 3.34375 32.09765625 C5.56276586 32.0740497 7.78125077 32.0411231 10 32 C10 34.31 10 36.62 10 39 C6.0078288 41.69741298 1.76008477 41.36751198 -2.875 41.375 C-3.66519531 41.39949219 -4.45539063 41.42398438 -5.26953125 41.44921875 C-10.66817061 41.47616703 -13.73037754 40.5893336 -18 37 C-22.55419136 31.09185986 -23.16183843 26.98649134 -23.25 19.625 C-23.27578125 18.33851563 -23.3015625 17.05203125 -23.328125 15.7265625 C-22.86408217 10.45636177 -20.91313137 6.33462087 -17.125 2.625 C-12.0688164 -1.44356388 -6.1386106 -1.00670186 0 0 Z " fill="#F4FAF1" transform="translate(295,169)"/>
<path d="M0 0 C0.33 0 0.66 0 1 0 C3.42059146 9.58926616 3.42059146 9.58926616 1 15 C0.86347223 17.81588524 1.12430005 20.31676554 2 23 C5.79586551 27.00104743 8.90199402 27.9149795 14.27734375 28.1328125 C15.48519531 28.13023437 16.69304687 28.12765625 17.9375 28.125 C19.14277344 28.12757813 20.34804687 28.13015625 21.58984375 28.1328125 C24.53222592 28.01821801 27.14489223 27.68262539 30 27 C29.4740625 27.8971875 29.4740625 27.8971875 28.9375 28.8125 C27.66695302 31.10813214 27.66695302 31.10813214 29 34 C29.78503906 34.06058594 30.57007813 34.12117188 31.37890625 34.18359375 C36.95361148 34.62820214 42.47640616 35.12124643 48 36 C48.495 38.475 48.495 38.475 49 41 C47.68 41 46.36 41 45 41 C45 41.66 45 42.32 45 43 C46.32 43 47.64 43 49 43 C49 43.66 49 44.32 49 45 C46.03 45.66 43.06 46.32 40 47 C40 46.34 40 45.68 40 45 C36.7 44.67 33.4 44.34 30 44 C30.33 42.35 30.66 40.7 31 39 C29.35 38.34 27.7 37.68 26 37 C26 39.31 26 41.62 26 44 C25.01 43.67 24.02 43.34 23 43 C22.67 41.35 22.34 39.7 22 38 C21.01 38.33 20.02 38.66 19 39 C18.67 40.65 18.34 42.3 18 44 C15.69 44 13.38 44 11 44 C11 42.02 11 40.04 11 38 C10.01 38 9.02 38 8 38 C8 39.98 8 41.96 8 44 C4.87110089 44 2.8755685 43.95852283 0 43 C-0.66 42.34 -1.32 41.68 -2 41 C-2.33 41.99 -2.66 42.98 -3 44 C-3.99 44 -4.98 44 -6 44 C-6.33 42.02 -6.66 40.04 -7 38 C-7.66 38 -8.32 38 -9 38 C-9 39.98 -9 41.96 -9 44 C-10.98 44 -12.96 44 -15 44 C-15 41.69 -15 39.38 -15 37 C-15.66 37 -16.32 37 -17 37 C-17 39.31 -17 41.62 -17 44 C-17.66 44 -18.32 44 -19 44 C-19 40.37 -19 36.74 -19 33 C-18.34 33 -17.68 33 -17 33 C-17 33.99 -17 34.98 -17 36 C-16.34 36 -15.68 36 -15 36 C-15 35.34 -15 34.68 -15 34 C-14.34 34 -13.68 34 -13 34 C-12.98582031 33.38253906 -12.97164062 32.76507813 -12.95703125 32.12890625 C-12.57333358 25.31567998 -10.72122179 20.68481853 -7 15 C-8.32 14.67 -9.64 14.34 -11 14 C-8.03 14 -5.06 14 -2 14 C-2.33 11.03 -2.66 8.06 -3 5 C-2.34 5.33 -1.68 5.66 -1 6 C-0.67 4.02 -0.34 2.04 0 0 Z " fill="#5F9F3B" transform="translate(166,195)"/>
<path d="M0 0 C2.97 0 5.94 0 9 0 C9 0.66 9 1.32 9 2 C9.52722656 1.67644531 10.05445313 1.35289062 10.59765625 1.01953125 C13.65616421 -0.27846969 16.12110383 -0.30099805 19.4375 -0.3125 C20.54996094 -0.32925781 21.66242188 -0.34601563 22.80859375 -0.36328125 C26.39616456 0.04509584 28.20065491 0.7338635 31 3 C33.20307195 7.1673544 33.26363654 11.10009121 33.1953125 15.70703125 C33.1924826 16.43242599 33.18965271 17.15782074 33.18673706 17.90519714 C33.17559799 20.20780368 33.15050566 22.51001227 33.125 24.8125 C33.11496206 26.37955165 33.10583763 27.94660943 33.09765625 29.51367188 C33.0756793 33.34259978 33.04119339 37.17123256 33 41 C30.03 41 27.06 41 24 41 C23.97494385 40.06615479 23.9498877 39.13230957 23.92407227 38.17016602 C23.82913072 34.71674811 23.72988742 31.2635104 23.62768555 27.81030273 C23.58428187 26.31360731 23.54261087 24.81686061 23.50268555 23.32006836 C23.44511384 21.17285688 23.38138284 19.02590479 23.31640625 16.87890625 C23.27974854 15.5854126 23.24309082 14.29191895 23.20532227 12.95922852 C23.3332722 10.11444992 23.3332722 10.11444992 22 9 C20.52351124 8.90176004 19.04224583 8.87026481 17.5625 8.875 C16.75941406 8.87242187 15.95632813 8.86984375 15.12890625 8.8671875 C12.94602069 8.86421674 12.94602069 8.86421674 11 10 C10.97494385 10.90355225 10.9498877 11.80710449 10.92407227 12.73803711 C10.82912683 16.0796428 10.72988379 19.42106252 10.62768555 22.76245117 C10.5842837 24.2106424 10.54261256 25.65888654 10.50268555 27.10717773 C10.44510938 29.18489559 10.38137972 31.26234573 10.31640625 33.33984375 C10.26141968 35.21724243 10.26141968 35.21724243 10.20532227 37.13256836 C10 40 10 40 9 41 C7.1875 41.1328125 7.1875 41.1328125 5 41.125 C4.278125 41.12757813 3.55625 41.13015625 2.8125 41.1328125 C1 41 1 41 0 40 C-0.08868299 37.04294679 -0.11520296 34.10934944 -0.09765625 31.15234375 C-0.0962413 30.2659169 -0.09482635 29.37949005 -0.09336853 28.46620178 C-0.08775215 25.62326746 -0.07519691 22.78041069 -0.0625 19.9375 C-0.05748711 18.01497509 -0.05292384 16.09244896 -0.04882812 14.16992188 C-0.03777741 9.44658451 -0.02050183 4.72330542 0 0 Z " fill="#F3FAF0" transform="translate(308,169)"/>
<path d="M0 0 C3.83887799 8.46088708 2.61992955 17.5779373 -0.54296875 26.10546875 C-4.76367226 34.49029797 -12.16368858 41.54360673 -21.0546875 44.73828125 C-22.68633102 45.21991096 -24.34174346 45.61998288 -26 46 C-27.20186886 33.15335735 -22.93937514 21.05654185 -15 11 C-14.58878906 10.43925781 -14.17757812 9.87851563 -13.75390625 9.30078125 C-10.38915358 4.9210868 -5.76824007 0 0 0 Z " fill="#589A35" transform="translate(259,79)"/>
<path d="M0 0 C4.45827926 -0.0578304 8.9164628 -0.09353855 13.375 -0.125 C15.28152344 -0.15013672 15.28152344 -0.15013672 17.2265625 -0.17578125 C18.43828125 -0.18222656 19.65 -0.18867188 20.8984375 -0.1953125 C22.01911621 -0.20578613 23.13979492 -0.21625977 24.29443359 -0.22705078 C27 0 27 0 29 2 C29.4541749 5.99768529 29.48829368 8.22799866 27.3125 11.66796875 C26.549375 12.49941406 25.78625 13.33085937 25 14.1875 C20.04094482 19.84600988 16.09196477 25.67605445 12 32 C17.61 32 23.22 32 29 32 C29 34.64 29 37.28 29 40 C19.43 40 9.86 40 0 40 C0 31.00155183 0 31.00155183 2.703125 27.4921875 C3.55583984 26.35330078 3.55583984 26.35330078 4.42578125 25.19140625 C5.02777344 24.42699219 5.62976563 23.66257813 6.25 22.875 C7.4226057 21.33128393 8.59449645 19.78702449 9.765625 18.2421875 C10.28930664 17.5704248 10.81298828 16.89866211 11.35253906 16.20654297 C13.33918479 13.54570953 15.15802816 10.76295776 17 8 C11.39 8 5.78 8 0 8 C0 5.36 0 2.72 0 0 Z " fill="#F5FAF2" transform="translate(241,169)"/>
<path d="M0 0 C7.21908602 1.31996832 12.63303788 7.10176943 16.8125 12.8125 C19.98167174 17.63228202 22.10517255 22.5726048 24 28 C24.4125 28.94875 24.825 29.8975 25.25 30.875 C26.44874611 35.86977546 26.14887327 40.88868454 26 46 C17.25178455 44.66130511 9.41487556 38.8694033 4 32 C0.80055769 26.80090624 -1.12318987 21.88830027 -1.1328125 15.7421875 C-1.13410156 14.95199219 -1.13539063 14.16179687 -1.13671875 13.34765625 C-1.13091797 12.12369141 -1.13091797 12.12369141 -1.125 10.875 C-1.12886719 10.05128906 -1.13273438 9.22757813 -1.13671875 8.37890625 C-1.12669335 2.2533867 -1.12669335 2.2533867 0 0 Z " fill="#589934" transform="translate(203,79)"/>
<path d="M0 0 C2.05078125 0.03255208 4.1015625 0.06510417 6.15234375 0.09765625 C6.15234375 1.08765625 6.15234375 2.07765625 6.15234375 3.09765625 C6.64734375 2.60265625 7.14234375 2.10765625 7.65234375 1.59765625 C11.26864533 -0.5721247 13.97465991 -0.11122794 18.15234375 0.09765625 C18.15234375 2.40765625 18.15234375 4.71765625 18.15234375 7.09765625 C17.05921875 7.40703125 15.96609375 7.71640625 14.83984375 8.03515625 C12.59826381 8.68103522 10.36540865 9.35996795 8.15234375 10.09765625 C8.1272876 11.0012085 8.10223145 11.90476074 8.07641602 12.83569336 C7.98147058 16.17729905 7.88222754 19.51871877 7.7800293 22.86010742 C7.73662745 24.30829865 7.69495631 25.75654279 7.6550293 27.20483398 C7.59745313 29.28255184 7.53372347 31.36000198 7.46875 33.4375 C7.41376343 35.31489868 7.41376343 35.31489868 7.35766602 37.23022461 C7.15234375 40.09765625 7.15234375 40.09765625 6.15234375 41.09765625 C4.33984375 41.23046875 4.33984375 41.23046875 2.15234375 41.22265625 C1.43046875 41.22523438 0.70859375 41.2278125 -0.03515625 41.23046875 C-1.84765625 41.09765625 -1.84765625 41.09765625 -2.84765625 40.09765625 C-2.94872499 37.22501569 -2.98735297 34.37691997 -2.98046875 31.50390625 C-2.98142548 30.64204712 -2.9823822 29.78018799 -2.98336792 28.89221191 C-2.98404975 27.06632413 -2.98219529 25.24043394 -2.97802734 23.41455078 C-2.97267911 20.60964547 -2.97797224 17.8049003 -2.984375 15 C-2.98371422 13.23046839 -2.98243306 11.46093689 -2.98046875 9.69140625 C-2.98249298 8.8466272 -2.98451721 8.00184814 -2.98660278 7.13146973 C-2.95832433 0.15635964 -2.95832433 0.15635964 0 0 Z " fill="#F1F8EC" transform="translate(207.84765625,168.90234375)"/>
<path d="M0 0 C2.97 0 5.94 0 9 0 C9 13.2 9 26.4 9 40 C6.03 40 3.06 40 0 40 C0 26.8 0 13.6 0 0 Z " fill="#FAFDF8" transform="translate(229,169)"/>
<path d="M0 0 C2.475 0.495 2.475 0.495 5 1 C5 1.66 5 2.32 5 3 C5.85464844 3.06058594 6.70929688 3.12117187 7.58984375 3.18359375 C8.69457031 3.26738281 9.79929687 3.35117188 10.9375 3.4375 C12.03964844 3.51871094 13.14179688 3.59992188 14.27734375 3.68359375 C17 4 17 4 18 5 C18.04092937 7.33297433 18.04241723 9.66705225 18 12 C17.67 12 17.34 12 17 12 C17 10.02 17 8.04 17 6 C15.68 6 14.36 6 13 6 C13 7.98 13 9.96 13 12 C12.67 11.34 12.34 10.68 12 10 C11.01257813 10.48855469 10.02515625 10.97710937 9.0078125 11.48046875 C4.89552548 13.23859045 1.29912761 13.41703988 -3.125 13.3125 C-3.81464844 13.31572266 -4.50429688 13.31894531 -5.21484375 13.32226562 C-9.23752703 13.27996207 -12.38007807 12.76770507 -16 11 C-16 9.02 -16 7.04 -16 5 C-14.68 4.67 -13.36 4.34 -12 4 C-12 4.66 -12 5.32 -12 6 C-12.99 6 -13.98 6 -15 6 C-15 7.32 -15 8.64 -15 10 C-13.68 10 -12.36 10 -11 10 C-10.67 8.02 -10.34 6.04 -10 4 C-8.35 4.33 -6.7 4.66 -5 5 C-4.67 4.01 -4.34 3.02 -4 2 C-3.01 2.33 -2.02 2.66 -1 3 C-0.67 2.01 -0.34 1.02 0 0 Z " fill="#A5CF8D" transform="translate(266,227)"/>
<path d="M0 0 C0.99 0.33 1.98 0.66 3 1 C2.360625 1.928125 1.72125 2.85625 1.0625 3.8125 C-1.08622093 6.84219943 -1.08622093 6.84219943 -2 10 C-0.68 9.67 0.64 9.34 2 9 C1.67 10.65 1.34 12.3 1 14 C1.66 14 2.32 14 3 14 C3 15.98 3 17.96 3 20 C3.99 20 4.98 20 6 20 C6 18.02 6 16.04 6 14 C6.33 14 6.66 14 7 14 C7 16.64 7 19.28 7 22 C2.25 22.125 2.25 22.125 0 21 C-0.66 21.185625 -1.32 21.37125 -2 21.5625 C-2.66 21.706875 -3.32 21.85125 -4 22 C-6 20 -6 20 -6.125 17.375 C-6.08375 16.59125 -6.0425 15.8075 -6 15 C-9.4776053 18.37532279 -12.62111131 21.87414566 -15.66796875 25.64453125 C-16.10753906 26.09183594 -16.54710938 26.53914063 -17 27 C-17.66 27 -18.32 27 -19 27 C-15.79640719 13.79640719 -15.79640719 13.79640719 -11 9 C-10.34 9 -9.68 9 -9 9 C-9 8.34 -9 7.68 -9 7 C-7.13671875 5.23828125 -7.13671875 5.23828125 -4.6875 3.3125 C-3.88699219 2.66925781 -3.08648437 2.02601563 -2.26171875 1.36328125 C-1.51535156 0.91339844 -0.76898438 0.46351563 0 0 Z " fill="#76B252" transform="translate(138,217)"/>
<path d="M0 0 C1.57159226 3.14318453 0.04018399 5.92933389 -0.9375 9.125 C-1.13279297 9.78371094 -1.32808594 10.44242188 -1.52929688 11.12109375 C-2.01304986 12.74933552 -2.50569075 14.37493182 -3 16 C-6.52763923 17.06609245 -9.88726593 17.23305808 -13.5625 17.3125 C-14.69816406 17.34988281 -15.83382812 17.38726562 -17.00390625 17.42578125 C-20 17 -20 17 -21.90234375 14.98046875 C-22.26457031 14.32691406 -22.62679687 13.67335937 -23 13 C-22.34 13 -21.68 13 -21 13 C-21 12.34 -21 11.68 -21 11 C-19.30508386 9.59731078 -17.542165 8.27609654 -15.75 7 C-14.28820312 5.948125 -14.28820312 5.948125 -12.796875 4.875 C-8.45022275 1.96104318 -5.20892933 0.71030855 0 0 Z " fill="#64A53F" transform="translate(131,167)"/>
<path d="M0 0 C1.423125 0.2165625 1.423125 0.2165625 2.875 0.4375 C5.91112293 0.87386585 8.94690212 1.20589424 12 1.5 C16.02291282 1.8875283 20.0047983 2.39203452 24 3 C24.33 4.65 24.66 6.3 25 8 C23.68 8 22.36 8 21 8 C21 8.66 21 9.32 21 10 C22.32 10 23.64 10 25 10 C25 10.66 25 11.32 25 12 C22.03 12.66 19.06 13.32 16 14 C16 13.34 16 12.68 16 12 C12.7 11.67 9.4 11.34 6 11 C6.33 9.35 6.66 7.7 7 6 C4.525 5.01 4.525 5.01 2 4 C2 6.31 2 8.62 2 11 C1.34 11 0.68 11 0 11 C0 7.37 0 3.74 0 0 Z " fill="#72A950" transform="translate(190,228)"/>
<path d="M0 0 C-0.59619955 4.86896303 -1.56976822 9.32790951 -3 14 C-7.52981712 12.29465708 -11.80636334 10.17111788 -16.125 8 C-16.84042969 7.64421875 -17.55585937 7.2884375 -18.29296875 6.921875 C-18.98261719 6.57640625 -19.67226562 6.2309375 -20.3828125 5.875 C-21.00559082 5.56304687 -21.62836914 5.25109375 -22.27001953 4.9296875 C-24 4 -24 4 -27 2 C-8.32818973 -1.59475973 -8.32818973 -1.59475973 0 0 Z " fill="#549630" transform="translate(127,184)"/>
<path d="M0 0 C1.15431185 3.46293555 0.82574848 4.20473325 -0.36328125 7.53515625 C-0.67330078 8.42783203 -0.98332031 9.32050781 -1.30273438 10.24023438 C-1.63595703 11.17158203 -1.96917969 12.10292969 -2.3125 13.0625 C-4.51070534 19.24302523 -6.41179284 25.22764593 -7.49682617 31.70874023 C-8 34 -8 34 -9.0300293 36.41699219 C-10.14321289 39.38137235 -10.31682222 41.79672215 -10.4140625 44.95703125 C-10.45273438 46.06884766 -10.49140625 47.18066406 -10.53125 48.32617188 C-10.5621875 49.47666016 -10.593125 50.62714844 -10.625 51.8125 C-10.66367188 52.98232422 -10.70234375 54.15214844 -10.7421875 55.35742188 C-10.8362513 58.23812564 -10.92189877 61.11882654 -11 64 C-15.44699916 59.55300084 -14.39194979 52.46033952 -14.71875 46.53125 C-14.9325527 43.84683826 -15.21756385 41.55595808 -16 39 C-15.01 38.34 -14.02 37.68 -13 37 C-12.34093895 34.42271199 -12.34093895 34.42271199 -12.0625 31.4375 C-11.358329 26.47871596 -10.14145533 22.62478634 -7.9375 18.16015625 C-6.93680935 15.85439821 -6.45532731 13.71771143 -6 11.25 C-5.22941576 7.2721192 -3.80927966 4.99052351 -1 2 C-0.67 1.34 -0.34 0.68 0 0 Z " fill="#4F922B" transform="translate(170,118)"/>
<path d="M0 0 C0.66 0 1.32 0 2 0 C2.83910389 3.26938086 3.67028333 6.54072534 4.5 9.8125 C4.73847656 10.74126953 4.97695312 11.67003906 5.22265625 12.62695312 C5.44824219 13.51962891 5.67382812 14.41230469 5.90625 15.33203125 C6.11572266 16.15421143 6.32519531 16.9763916 6.54101562 17.82348633 C7 20 7 20 7 23 C3.04 23 -0.92 23 -5 23 C-3 3 -3 3 0 0 Z " fill="#68A445" transform="translate(142,164)"/>
<path d="M0 0 C2.9375 1.0625 2.9375 1.0625 5 3 C5.4375 6.5625 5.4375 6.5625 5 10 C3 12 3 12 0.46875 12.265625 C-0.5109375 12.26046875 -1.490625 12.2553125 -2.5 12.25 C-3.4796875 12.25515625 -4.459375 12.2603125 -5.46875 12.265625 C-8 12 -8 12 -10 10 C-10.54587156 3.99541284 -10.54587156 3.99541284 -8.9375 1.0625 C-5.86184905 -0.62414729 -3.4412342 -0.35598975 0 0 Z " fill="#569733" transform="translate(186,176)"/>
<path d="M0 0 C5.95507399 0.3916035 10.62819824 1.37124595 16 4 C15.625 6.4375 15.625 6.4375 15 9 C12.39820337 10.30089831 10.4030812 10.16840078 7.5 10.1875 C6.5203125 10.20167969 5.540625 10.21585938 4.53125 10.23046875 C2 10 2 10 0 8 C-0.26991906 5.31160615 -0.08737357 2.70858064 0 0 Z " fill="#579734" transform="translate(176,207)"/>
<path d="M0 0 C2.4375 2.25 2.4375 2.25 4 5 C4 6.32 4 7.64 4 9 C-0.95 9 -5.9 9 -11 9 C-10.67 6.69 -10.34 4.38 -10 2 C-6.26744552 -0.48836965 -4.41559065 -0.54226552 0 0 Z " fill="#65A142" transform="translate(293,177)"/>
<path d="M0 0 C0.66 0 1.32 0 2 0 C2 0.99 2 1.98 2 3 C2.66 3 3.32 3 4 3 C4 2.34 4 1.68 4 1 C7.465 0.505 7.465 0.505 11 0 C11 0.99 11 1.98 11 3 C11.66 3 12.32 3 13 3 C13.99 4.485 13.99 4.485 15 6 C15.66 5.34 16.32 4.68 17 4 C16.67 6.31 16.34 8.62 16 11 C15.01 11 14.02 11 13 11 C12.67 9.02 12.34 7.04 12 5 C11.34 5 10.68 5 10 5 C10 6.98 10 8.96 10 11 C8.02 11 6.04 11 4 11 C4 8.69 4 6.38 4 4 C3.34 4 2.68 4 2 4 C2 6.31 2 8.62 2 11 C1.34 11 0.68 11 0 11 C0 7.37 0 3.74 0 0 Z " fill="#74AB52" transform="translate(147,228)"/>
<path d="M0 0 C3.96 0.33 7.92 0.66 12 1 C12.33 2.65 12.66 4.3 13 6 C11.68 6 10.36 6 9 6 C9 6.66 9 7.32 9 8 C10.32 8.33 11.64 8.66 13 9 C9.37 9 5.74 9 2 9 C0 4 0 4 0 0 Z " fill="#94C37A" transform="translate(202,230)"/>
<path d="M0 0 C0.33 0 0.66 0 1 0 C1.33 10.56 1.66 21.12 2 32 C2.33 32 2.66 32 3 32 C3 34.31 3 36.62 3 39 C12.24 39 21.48 39 31 39 C31 39.33 31 39.66 31 40 C17.8 40 4.6 40 -9 40 C-9 39.67 -9 39.34 -9 39 C-6.03 39 -3.06 39 0 39 C0 26.13 0 13.26 0 0 Z " fill="#98C57E" transform="translate(238,170)"/>
<path d="M0 0 C0.66 0 1.32 0 2 0 C2.33 2.64 2.66 5.28 3 8 C1.68 8 0.36 8 -1 8 C-1 8.66 -1 9.32 -1 10 C-0.01 10.33 0.98 10.66 2 11 C-1.3 11 -4.6 11 -8 11 C-8 8.36 -8 5.72 -8 3 C-6.865625 2.87625 -5.73125 2.7525 -4.5625 2.625 C-3.386875 2.41875 -2.21125 2.2125 -1 2 C-0.67 1.34 -0.34 0.68 0 0 Z " fill="#6DA34B" transform="translate(245,228)"/>
<path d="M0 0 C0.33 0.99 0.66 1.98 1 3 C2.32 2.67 3.64 2.34 5 2 C4.67 3.65 4.34 5.3 4 7 C4.66 7 5.32 7 6 7 C6 8.98 6 10.96 6 13 C6.99 13 7.98 13 9 13 C9 11.02 9 9.04 9 7 C9.33 7 9.66 7 10 7 C10 9.64 10 12.28 10 15 C7.625 15.125 7.625 15.125 5 15 C4.34 14.34 3.68 13.68 3 13 C0.42938689 12.35232207 0.42938689 12.35232207 -2 12 C-1.67 10.02 -1.34 8.04 -1 6 C0.32 6 1.64 6 3 6 C3 5.34 3 4.68 3 4 C1.35 4 -0.3 4 -2 4 C-2 3.01 -2 2.02 -2 1 C-1.34 0.67 -0.68 0.34 0 0 Z " fill="#61A03E" transform="translate(135,224)"/>
<path d="M0 0 C2.97 0 5.94 0 9 0 C9 2.97 9 5.94 9 9 C6.03 9 3.06 9 0 9 C0 6.03 0 3.06 0 0 Z " fill="#F3F9EF" transform="translate(229,155)"/>
<path d="M0 0 C0.33 0.66 0.66 1.32 1 2 C0.00390625 4.3828125 0.00390625 4.3828125 -1.4375 7.125 C-1.91058594 8.03507812 -2.38367187 8.94515625 -2.87109375 9.8828125 C-3.24363281 10.58148438 -3.61617187 11.28015625 -4 12 C-4.66 12 -5.32 12 -6 12 C-6.33 16.62 -6.66 21.24 -7 26 C-9 24 -9 24 -9.08203125 21.4609375 C-8.52729408 15.10959893 -7.58251026 9.83871886 -5 4 C-4.34 4 -3.68 4 -3 4 C-2.67 3.01 -2.34 2.02 -2 1 C-1.34 0.67 -0.68 0.34 0 0 Z " fill="#65A73E" transform="translate(56,277)"/>
<path d="M0 0 C0.99 0 1.98 0 3 0 C3 0.66 3 1.32 3 2 C2.01 2 1.02 2 0 2 C0 3.32 0 4.64 0 6 C1.32 6 2.64 6 4 6 C4.33 4.02 4.66 2.04 5 0 C6.65 0.33 8.3 0.66 10 1 C10 2.98 10 4.96 10 7 C6.60169639 7.77675511 3.48880949 8.19382275 0 8 C-1 7 -1 7 -1.125 4 C-1 1 -1 1 0 0 Z " fill="#BCE0A7" transform="translate(251,231)"/>
<path d="M0 0 C4 2 4 2 5 3 C5.04092937 5.33297433 5.04241723 7.66705225 5 10 C2.47524538 11.26237731 0.68799534 11.09856404 -2.125 11.0625 C-3.03507812 11.05347656 -3.94515625 11.04445312 -4.8828125 11.03515625 C-5.58148438 11.02355469 -6.28015625 11.01195312 -7 11 C-6.67 10.34 -6.34 9.68 -6 9 C-4.68 9 -3.36 9 -2 9 C-1.34 6.03 -0.68 3.06 0 0 Z " fill="#8ABA6C" transform="translate(262,229)"/>
<path d="M0 0 C2.475 0.495 2.475 0.495 5 1 C5 1.66 5 2.32 5 3 C5.85464844 3.06058594 6.70929688 3.12117187 7.58984375 3.18359375 C8.69457031 3.26738281 9.79929687 3.35117188 10.9375 3.4375 C12.03964844 3.51871094 13.14179688 3.59992188 14.27734375 3.68359375 C17 4 17 4 18 5 C18.04092937 7.33297433 18.04241723 9.66705225 18 12 C17.67 12 17.34 12 17 12 C17 10.02 17 8.04 17 6 C15.68 6 14.36 6 13 6 C13 7.98 13 9.96 13 12 C12.67 11.34 12.34 10.68 12 10 C11.34 10 10.68 10 10 10 C9.67 8.35 9.34 6.7 9 5 C7.35 5.33 5.7 5.66 4 6 C4 5.34 4 4.68 4 4 C2.68 4 1.36 4 0 4 C0 2.68 0 1.36 0 0 Z " fill="#8EC074" transform="translate(266,227)"/>
<path d="M0 0 C3.92554654 4.52947677 7.60648914 9.48260548 10 15 C9.375 18.625 9.375 18.625 8 21 C5.17678135 18.17678135 4.22705463 14.74021797 2.875 11.0625 C2.59785156 10.33353516 2.32070313 9.60457031 2.03515625 8.85351562 C0.89178807 5.78106567 0 3.30460627 0 0 Z " fill="#65A73F" transform="translate(268,309)"/>
<path d="M0 0 C0.66 0 1.32 0 2 0 C2 3.3 2 6.6 2 10 C-0.64 10 -3.28 10 -6 10 C-6 8.68 -6 7.36 -6 6 C-5.67 6.99 -5.34 7.98 -5 9 C-4.34 9 -3.68 9 -3 9 C-3 7.35 -3 5.7 -3 4 C-3.99 4 -4.98 4 -6 4 C-6 3.34 -6 2.68 -6 2 C-4.35 2 -2.7 2 -1 2 C-0.67 1.34 -0.34 0.68 0 0 Z " fill="#A8D18E" transform="translate(330,229)"/>
<path d="M0 0 C1.98 0.66 3.96 1.32 6 2 C5.625 4.4375 5.625 4.4375 5 7 C2.35541621 8.32229189 0.32238699 8.09677194 -2.625 8.0625 C-3.62789062 8.05347656 -4.63078125 8.04445312 -5.6640625 8.03515625 C-6.43492187 8.02355469 -7.20578125 8.01195312 -8 8 C-8 7.67 -8 7.34 -8 7 C-6.35 7 -4.7 7 -3 7 C-3 6.34 -3 5.68 -3 5 C-2.34 5 -1.68 5 -1 5 C-0.67 3.35 -0.34 1.7 0 0 Z " fill="#67A145" transform="translate(186,209)"/>
<path d="M0 0 C0.33 0 0.66 0 1 0 C1.39328132 1.55799906 1.76384694 3.12174149 2.125 4.6875 C2.33382812 5.55761719 2.54265625 6.42773438 2.7578125 7.32421875 C3 10 3 10 1 15 C-2.96 15 -6.92 15 -11 15 C-11 14.67 -11 14.34 -11 14 C-8.03 14 -5.06 14 -2 14 C-2.33 11.03 -2.66 8.06 -3 5 C-2.34 5.33 -1.68 5.66 -1 6 C-0.67 4.02 -0.34 2.04 0 0 Z " fill="#78AC59" transform="translate(166,195)"/>
<path d="M0 0 C0.33 0 0.66 0 1 0 C1 5.61 1 11.22 1 17 C-0.65 17 -2.3 17 -4 17 C-4 16.01 -4 15.02 -4 14 C-3.34 14 -2.68 14 -2 14 C-2.33 11.03 -2.66 8.06 -3 5 C-2.34 5 -1.68 5 -1 5 C-0.67 3.35 -0.34 1.7 0 0 Z " fill="#50942D" transform="translate(465,325)"/>
<path d="M0 0 C0.66 0.33 1.32 0.66 2 1 C1.84402344 1.62648438 1.68804687 2.25296875 1.52734375 2.8984375 C1.33269531 3.71570313 1.13804688 4.53296875 0.9375 5.375 C0.74027344 6.18710937 0.54304688 6.99921875 0.33984375 7.8359375 C-0.22109319 10.04161284 -0.22109319 10.04161284 1 12 C0.34 12 -0.32 12 -1 12 C-0.979375 13.093125 -0.95875 14.18625 -0.9375 15.3125 C-1 19 -1 19 -2 22 C-2.66 22 -3.32 22 -4 22 C-3.91240742 19.45679484 -3.80546587 16.91683067 -3.6875 14.375 C-3.66494141 13.66214844 -3.64238281 12.94929688 -3.61914062 12.21484375 C-3.37993032 7.47413052 -2.45735603 4.17684645 0 0 Z " fill="#63A43C" transform="translate(59,277)"/>
<path d="M0 0 C0.66 0 1.32 0 2 0 C2 0.99 2 1.98 2 3 C2.99 2.67 3.98 2.34 5 2 C5.66 2.33 6.32 2.66 7 3 C7 5.64 7 8.28 7 11 C6.01 11 5.02 11 4 11 C4 9.02 4 7.04 4 5 C3.34 5 2.68 5 2 5 C2 6.98 2 8.96 2 11 C1.34 11 0.68 11 0 11 C0 7.37 0 3.74 0 0 Z " fill="#A2CF88" transform="translate(334,228)"/>
<path d="M0 0 C2.44009082 0.25511405 4.87577058 0.52832678 7.3125 0.8125 C8.00279297 0.88275391 8.69308594 0.95300781 9.40429688 1.02539062 C12.4277352 1.39054018 14.56107971 1.65111464 16.98046875 3.57421875 C17.31691406 4.04472656 17.65335938 4.51523437 18 5 C11.28299653 5.31985731 6.24273068 4.4793824 0 2 C0 1.34 0 0.68 0 0 Z " fill="#68AA41" transform="translate(1,289)"/>
<path d="M0 0 C1.32 0 2.64 0 4 0 C4 3.63 4 7.26 4 11 C3.67 10.01 3.34 9.02 3 8 C0.98491642 7.26676204 0.98491642 7.26676204 -1 7 C-1.04254356 5.00045254 -1.04080783 2.99958364 -1 1 C-0.67 0.67 -0.34 0.34 0 0 Z " fill="#A1CE88" transform="translate(310,231)"/>
<path d="M0 0 C2.0625 0.4375 2.0625 0.4375 4 1 C4 2.98 4 4.96 4 7 C2.125 7.625 2.125 7.625 0 8 C-0.66 7.34 -1.32 6.68 -2 6 C-1.44444444 1.44444444 -1.44444444 1.44444444 0 0 Z " fill="#9FCA84" transform="translate(167,231)"/>
<path d="M0 0 C0.66 0 1.32 0 2 0 C2 0.99 2 1.98 2 3 C2.66 3 3.32 3 4 3 C4.99 4.485 4.99 4.485 6 6 C6.66 5.34 7.32 4.68 8 4 C7.67 6.31 7.34 8.62 7 11 C6.01 11 5.02 11 4 11 C3.67 9.02 3.34 7.04 3 5 C2.34 5 1.68 5 1 5 C1 6.98 1 8.96 1 11 C0.67 11 0.34 11 0 11 C0 7.37 0 3.74 0 0 Z " fill="#BDE2A6" transform="translate(156,228)"/>
<path d="M0 0 C0.66 0 1.32 0 2 0 C2.24887295 2.10192697 2.4734719 4.20673964 2.6875 6.3125 C2.81511719 7.48425781 2.94273438 8.65601563 3.07421875 9.86328125 C3 13 3 13 0 16 C0 10.72 0 5.44 0 0 Z " fill="#52942E" transform="translate(50,290)"/>
<path d="M0 0 C0.66 0 1.32 0 2 0 C2.33 2.64 2.66 5.28 3 8 C1.68 8 0.36 8 -1 8 C-1 8.66 -1 9.32 -1 10 C-0.01 10.33 0.98 10.66 2 11 C0.35 10.67 -1.3 10.34 -3 10 C-3.3636198 5.75776898 -2.5393228 3.41831915 0 0 Z " fill="#ACD696" transform="translate(345,228)"/>
<path d="M0 0 C0.66 0 1.32 0 2 0 C2.33 2.64 2.66 5.28 3 8 C1.68 8 0.36 8 -1 8 C-1 8.66 -1 9.32 -1 10 C-0.01 10.33 0.98 10.66 2 11 C0.35 10.67 -1.3 10.34 -3 10 C-3.3636198 5.75776898 -2.5393228 3.41831915 0 0 Z " fill="#AED69A" transform="translate(245,228)"/>
<path d="M0 0 C0.99 0.99 1.98 1.98 3 3 C2.34 3 1.68 3 1 3 C0.72414062 3.71542969 0.44828125 4.43085938 0.1640625 5.16796875 C-0.98248522 7.95738855 -2.26227115 10.62290358 -3.625 13.3125 C-4.07101563 14.19550781 -4.51703125 15.07851562 -4.9765625 15.98828125 C-5.48316406 16.98408203 -5.48316406 16.98408203 -6 18 C-6.66 17.67 -7.32 17.34 -8 17 C-6.0871037 12.21775926 -3.86755349 8.30133024 -1 4 C-0.23060319 1.77397385 -0.23060319 1.77397385 0 0 Z " fill="#6CAB47" transform="translate(196,128)"/>
<path d="M0 0 C0.66 0 1.32 0 2 0 C2 0.99 2 1.98 2 3 C2.99 2.67 3.98 2.34 5 2 C5.66 2.66 6.32 3.32 7 4 C6.34 4 5.68 4 5 4 C5 5.98 5 7.96 5 10 C4.67 10 4.34 10 4 10 C4 8.02 4 6.04 4 4 C3.34 4 2.68 4 2 4 C2 6.31 2 8.62 2 11 C1.34 11 0.68 11 0 11 C0 7.37 0 3.74 0 0 Z " fill="#B3D8A1" transform="translate(147,228)"/>
<path d="M0 0 C2.125 0.375 2.125 0.375 4 1 C4 2.32 4 3.64 4 5 C2.68 5 1.36 5 0 5 C0 5.66 0 6.32 0 7 C1.32 7.33 2.64 7.66 4 8 C2.35 8 0.7 8 -1 8 C-1.625 5.125 -1.625 5.125 -2 2 C-1.34 1.34 -0.68 0.68 0 0 Z " fill="#B6DBA3" transform="translate(211,231)"/>
<path d="M0 0 C0.99 0.33 1.98 0.66 3 1 C3 5 3 5 2 7 C2.66 7 3.32 7 4 7 C4 7.66 4 8.32 4 9 C1.69 8.67 -0.62 8.34 -3 8 C-2.67 7.01 -2.34 6.02 -2 5 C-1.34 5.33 -0.68 5.66 0 6 C0 4.02 0 2.04 0 0 Z " fill="#549530" transform="translate(229,233)"/>
<path d="M0 0 C0.1953125 6.0546875 0.1953125 6.0546875 0 8 C-0.66 8.66 -1.32 9.32 -2 10 C-2.268125 9.236875 -2.53625 8.47375 -2.8125 7.6875 C-3.94424112 5.12619116 -4.91223401 3.80307062 -7 2 C-1.125 0 -1.125 0 0 0 Z " fill="#559731" transform="translate(294,231)"/>
<path d="M0 0 C1.65 0 3.3 0 5 0 C4.67 1.32 4.34 2.64 4 4 C3.34 4 2.68 4 2 4 C2 6.31 2 8.62 2 11 C1.34 11 0.68 11 0 11 C0 7.37 0 3.74 0 0 Z " fill="#A5D28B" transform="translate(190,228)"/>
<path d="M0 0 C0.33 0.66 0.66 1.32 1 2 C0.06553465 4.03144641 -0.93224776 6.03533587 -2 8 C-2.66 8 -3.32 8 -4 8 C-4 8.66 -4 9.32 -4 10 C-4.66 10 -5.32 10 -6 10 C-5.67 8.02 -5.34 6.04 -5 4 C-4.34 4 -3.68 4 -3 4 C-2.67 3.01 -2.34 2.02 -2 1 C-1.34 0.67 -0.68 0.34 0 0 Z " fill="#6CAB46" transform="translate(56,277)"/>
<path d="M0 0 C1.98 0.495 1.98 0.495 4 1 C4 3.31 4 5.62 4 8 C2.35 7.67 0.7 7.34 -1 7 C-0.67 4.69 -0.34 2.38 0 0 Z " fill="#AFD998" transform="translate(299,231)"/>
<path d="M0 0 C0.66 0.99 1.32 1.98 2 3 C1.34 4.32 0.68 5.64 0 7 C1.65 7.33 3.3 7.66 5 8 C5 8.33 5 8.66 5 9 C1.7 9 -1.6 9 -5 9 C-3.44455189 5.88910379 -1.80979645 2.96148509 0 0 Z " fill="#71A950" transform="translate(258,192)"/>
<path d="M0 0 C-0.5859375 6.15234375 -0.5859375 6.15234375 -1 8 C-1.99 8.495 -1.99 8.495 -3 9 C-5.1519437 5.77208445 -5.20086443 4.71599191 -5 1 C-3 0 -3 0 0 0 Z " fill="#539630" transform="translate(167,193)"/>
<path d="M0 0 C0.66 0 1.32 0 2 0 C2 1.98 2 3.96 2 6 C2.99 6 3.98 6 5 6 C5 4.02 5 2.04 5 0 C5.33 0 5.66 0 6 0 C6 2.64 6 5.28 6 8 C4.33388095 8.042721 2.66617115 8.04063832 1 8 C0 7 0 7 -0.0625 3.4375 C-0.041875 2.303125 -0.02125 1.16875 0 0 Z " fill="#BADBA8" transform="translate(139,231)"/>
<path d="M0 0 C1.66611905 -0.042721 3.33382885 -0.04063832 5 0 C6 1 6 1 6.0625 4.5625 C6.041875 5.696875 6.02125 6.83125 6 8 C5.34 8 4.68 8 4 8 C4 6.02 4 4.04 4 2 C3.01 2 2.02 2 1 2 C1 3.98 1 5.96 1 8 C0.67 8 0.34 8 0 8 C0 5.36 0 2.72 0 0 Z " fill="#B6E09E" transform="translate(173,231)"/>
<path d="M0 0 C2.4375 0.375 2.4375 0.375 5 1 C5.33 1.66 5.66 2.32 6 3 C3.36 4.98 0.72 6.96 -2 9 C-1.505 7.6078125 -1.505 7.6078125 -1 6.1875 C0.14967004 3.07970709 0.14967004 3.07970709 0 0 Z " fill="#66A740" transform="translate(431,262)"/>
<path d="M0 0 C0.99 0.33 1.98 0.66 3 1 C3 3.64 3 6.28 3 9 C0.03 8.505 0.03 8.505 -3 8 C-3 7.34 -3 6.68 -3 6 C-1.68 6 -0.36 6 1 6 C0.67 4.02 0.34 2.04 0 0 Z " fill="#71A94E" transform="translate(214,230)"/>
<path d="M0 0 C1.32 0 2.64 0 4 0 C4 0.66 4 1.32 4 2 C3.01 2.495 3.01 2.495 2 3 C2.66 3.33 3.32 3.66 4 4 C3.67 5.32 3.34 6.64 3 8 C1.68 8 0.36 8 -1 8 C-1 7.34 -1 6.68 -1 6 C-0.34 5.67 0.32 5.34 1 5 C0.34 3.68 -0.32 2.36 -1 1 C-0.67 0.67 -0.34 0.34 0 0 Z " fill="#ABD593" transform="translate(181,231)"/>
<path d="M0 0 C2.475 0.495 2.475 0.495 5 1 C5 2.98 5 4.96 5 7 C4.67 6.34 4.34 5.68 4 5 C3.01 5 2.02 5 1 5 C1 5.66 1 6.32 1 7 C1.66 7.33 2.32 7.66 3 8 C2.01 8 1.02 8 0 8 C0.185625 7.236875 0.37125 6.47375 0.5625 5.6875 C1.22819173 2.91032625 1.22819173 2.91032625 0 0 Z " fill="#BBE0A8" transform="translate(196,231)"/>
<path d="M0 0 C2.31 0 4.62 0 7 0 C4.16714998 1.88856668 1.3051273 3.50546052 -1.6875 5.125 C-2.68136719 5.66382813 -3.67523438 6.20265625 -4.69921875 6.7578125 C-5.45847656 7.16773438 -6.21773437 7.57765625 -7 8 C-7 7.01 -7 6.02 -7 5 C-5.5459375 4.5978125 -5.5459375 4.5978125 -4.0625 4.1875 C-3.051875 3.795625 -2.04125 3.40375 -1 3 C-0.67 2.01 -0.34 1.02 0 0 Z " fill="#82B361" transform="translate(210,54)"/>
<path d="M0 0 C0.66 0.66 1.32 1.32 2 2 C-0.64 4.31 -3.28 6.62 -6 9 C-6.66 8.34 -7.32 7.68 -8 7 C-5.53058944 4.40062046 -2.81939117 2.20979308 0 0 Z " fill="#65A73F" transform="translate(317,307)"/>
<path d="M0 0 C0.33 0 0.66 0 1 0 C1.33 3.63 1.66 7.26 2 11 C-0.6666419 12.33332095 -2.16680303 11.67102033 -5 11 C-3.68 10.67 -2.36 10.34 -1 10 C-1.020625 8.72125 -1.04125 7.4425 -1.0625 6.125 C-1.125 2.25 -1.125 2.25 0 0 Z " fill="#70A94D" transform="translate(146,229)"/>
<path d="M0 0 C3.32532111 2.69192661 4.52454943 6.06546515 6 10 C6 10.99 6 11.98 6 13 C5.34 13 4.68 13 4 13 C3.32942113 11.2097939 2.6636531 9.41778511 2 7.625 C1.62875 6.62726563 1.2575 5.62953125 0.875 4.6015625 C0 2 0 2 0 0 Z " fill="#69A942" transform="translate(87,68)"/>
<path d="M0 0 C2.475 0.495 2.475 0.495 5 1 C4.67 2.65 4.34 4.3 4 6 C2.68 6 1.36 6 0 6 C0 4.02 0 2.04 0 0 Z " fill="#8DBE73" transform="translate(256,231)"/>
<path d="M0 0 C0.33 0 0.66 0 1 0 C1.1953125 6.0546875 1.1953125 6.0546875 1 8 C0.34 8.66 -0.32 9.32 -1 10 C-2 9 -2 9 -2.1875 6.125 C-2 3 -2 3 0 0 Z " fill="#51952D" transform="translate(112,262)"/>
<path d="M0 0 C0.99 0.33 1.98 0.66 3 1 C2.67 1.66 2.34 2.32 2 3 C2.99 3 3.98 3 5 3 C5 4.65 5 6.3 5 8 C3 8 3 8 1.375 6.8125 C-0.42149467 4.44439338 -0.23521845 2.90102749 0 0 Z " fill="#72A752" transform="translate(322,230)"/>
<path d="M0 0 C2 1 2 1 2.625 2.5625 C3.16368951 6.06398181 3.05903219 9.45806833 3 13 C2.34 12.67 1.68 12.34 1 12 C0.5859375 9.27734375 0.5859375 9.27734375 0.375 5.9375 C0.30023438 4.83277344 0.22546875 3.72804688 0.1484375 2.58984375 C0.09945312 1.73519531 0.05046875 0.88054687 0 0 Z " fill="#68AA41" transform="translate(66,105)"/>
<path d="M0 0 C0.33 0 0.66 0 1 0 C1 2.31 1 4.62 1 7 C0.34 7 -0.32 7 -1 7 C-1.33 8.65 -1.66 10.3 -2 12 C-2.33 12 -2.66 12 -3 12 C-3.34833144 7.12335991 -2.41685712 4.22949995 0 0 Z " fill="#6CAD45" transform="translate(96,231)"/>
<path d="M0 0 C0.33 0 0.66 0 1 0 C1 1.65 1 3.3 1 5 C-0.65 5.66 -2.3 6.32 -4 7 C-4 7.66 -4 8.32 -4 9 C-4.66 8.67 -5.32 8.34 -6 8 C-5.02471263 6.66382648 -4.04466681 5.3311249 -3.0625 4 C-2.24458984 2.88625 -2.24458984 2.88625 -1.41015625 1.75 C-0.94480469 1.1725 -0.47945313 0.595 0 0 Z " fill="#76AC58" transform="translate(265,183)"/>
<path d="M0 0 C0.33 0 0.66 0 1 0 C1.625 2.875 1.625 2.875 2 6 C1.34 6.66 0.68 7.32 0 8 C-0.45811675 9.97235333 -0.45811675 9.97235333 -0.625 12.125 C-0.74875 13.40375 -0.8725 14.6825 -1 16 C-1.33 16 -1.66 16 -2 16 C-2.33 12.7 -2.66 9.4 -3 6 C-2.34 5.67 -1.68 5.34 -1 5 C-0.34444881 2.47266765 -0.34444881 2.47266765 0 0 Z " fill="#7CAE5F" transform="translate(202,170)"/>
<path d="M0 0 C0.66 0 1.32 0 2 0 C2.33 1.65 2.66 3.3 3 5 C1.35 6.32 -0.3 7.64 -2 9 C-1.125 1.125 -1.125 1.125 0 0 Z " fill="#83B465" transform="translate(142,164)"/>
<path d="M0 0 C0.66 0.33 1.32 0.66 2 1 C0.68 4.63 -0.64 8.26 -2 12 C-2.33 12 -2.66 12 -3 12 C-3.34833144 7.12335991 -2.41685712 4.22949995 0 0 Z " fill="#6BAB45" transform="translate(59,277)"/>
<path d="M0 0 C0.66 0 1.32 0 2 0 C2.33 2.97 2.66 5.94 3 9 C1.68 9.33 0.36 9.66 -1 10 C-0.67 6.7 -0.34 3.4 0 0 Z " fill="#54942F" transform="translate(149,232)"/>
<path d="M0 0 C1.32 0 2.64 0 4 0 C4 0.66 4 1.32 4 2 C3.01 2.495 3.01 2.495 2 3 C2.66 3.33 3.32 3.66 4 4 C4 5.32 4 6.64 4 8 C2.68 7.67 1.36 7.34 0 7 C0.99 7 1.98 7 3 7 C3 6.34 3 5.68 3 5 C1.68 4.34 0.36 3.68 -1 3 C-0.67 2.01 -0.34 1.02 0 0 Z " fill="#AEDB98" transform="translate(286,231)"/>
<path d="M0 0 C1 2 1 2 0.44140625 3.9453125 C0.15136719 4.66460937 -0.13867188 5.38390625 -0.4375 6.125 C-0.72496094 6.84945312 -1.01242187 7.57390625 -1.30859375 8.3203125 C-1.53675781 8.87460938 -1.76492188 9.42890625 -2 10 C-2.66 9.67 -3.32 9.34 -4 9 C-4.25 6.75 -4.25 6.75 -4 4 C-2 1.6875 -2 1.6875 0 0 Z " fill="#64A73D" transform="translate(431,223)"/>
<path d="M0 0 C0.99 0 1.98 0 3 0 C3 1.98 3 3.96 3 6 C1.02 6.99 1.02 6.99 -1 8 C-0.67 5.36 -0.34 2.72 0 0 Z " fill="#569535" transform="translate(218,233)"/>
<path d="M0 0 C1.32 0 2.64 0 4 0 C4 0.66 4 1.32 4 2 C3.34 2 2.68 2 2 2 C2 3.98 2 5.96 2 8 C1.34 8 0.68 8 0 8 C0 5.36 0 2.72 0 0 Z " fill="#ACD696" transform="translate(237,231)"/>
<path d="M0 0 C1.32 0 2.64 0 4 0 C4 0.66 4 1.32 4 2 C3.34 2 2.68 2 2 2 C2 3.98 2 5.96 2 8 C1.34 8 0.68 8 0 8 C0 5.36 0 2.72 0 0 Z " fill="#A7D58C" transform="translate(227,231)"/>
<path d="M0 0 C0.66 0.66 1.32 1.32 2 2 C2.66 1.67 3.32 1.34 4 1 C4 2.32 4 3.64 4 5 C3.34 5 2.68 5 2 5 C2 5.66 2 6.32 2 7 C1.34 7 0.68 7 0 7 C-1.125 2.25 -1.125 2.25 0 0 Z " fill="#4F912C" transform="translate(149,224)"/>
<path d="M0 0 C0.99 0.33 1.98 0.66 3 1 C1.71937515 2.7074998 0.38232443 4.37373596 -1 6 C-1.66 6 -2.32 6 -3 6 C-3 6.66 -3 7.32 -3 8 C-3.66 7.67 -4.32 7.34 -5 7 C-3.35 4.69 -1.7 2.38 0 0 Z " fill="#E7F6E2" transform="translate(249,190)"/>
<path d="M0 0 C1 3 1 3 0.25 5.125 C-1 7 -1 7 -4 8 C-3.50168276 4.31245243 -2.89932357 2.39509338 0 0 Z " fill="#67A83F" transform="translate(164,171)"/>
<path d="M0 0 C0 3 0 3 -1.3125 4.38671875 C-2.875 5.59114583 -4.4375 6.79557292 -6 8 C-6 5 -6 5 -4.6875 3.61328125 C-3.125 2.40885417 -1.5625 1.20442708 0 0 Z " fill="#66A83F" transform="translate(177,128)"/>
<path d="M0 0 C0.33 0 0.66 0 1 0 C1.33 2.64 1.66 5.28 2 8 C3.65 8 5.3 8 7 8 C4 10 4 10 0 11 C0 7.37 0 3.74 0 0 Z " fill="#80B062" transform="translate(233,114)"/>
<path d="M0 0 C0.66 0.66 1.32 1.32 2 2 C1.625 4.125 1.625 4.125 1 6 C-0.32 6 -1.64 6 -3 6 C-3 4.68 -3 3.36 -3 2 C-2.01 2 -1.02 2 0 2 C0 1.34 0 0.68 0 0 Z " fill="#6CA64B" transform="translate(254,231)"/>
<path d="M0 0 C0.66 0 1.32 0 2 0 C2 0.99 2 1.98 2 3 C2.66 3.33 3.32 3.66 4 4 C3.01 4.33 2.02 4.66 1 5 C1 6.98 1 8.96 1 11 C0.67 11 0.34 11 0 11 C0 7.37 0 3.74 0 0 Z " fill="#A4D58B" transform="translate(156,228)"/>
<path d="M0 0 C0.66 0.33 1.32 0.66 2 1 C-1.465 3.97 -1.465 3.97 -5 7 C-3.75023244 3.34683329 -3.32901247 2.21934164 0 0 Z " fill="#65A63F" transform="translate(368,248)"/>
<path d="M0 0 C1.98 0.66 3.96 1.32 6 2 C5.01 2.66 4.02 3.32 3 4 C2.34 4.99 1.68 5.98 1 7 C0.67 4.69 0.34 2.38 0 0 Z " fill="#73AB52" transform="translate(160,230)"/>
<path d="M0 0 C3.625 -0.1875 3.625 -0.1875 7 0 C4.23776722 2.76223278 1.79293383 2.57856291 -2 3 C-1.34 2.01 -0.68 1.02 0 0 Z " fill="#80AF62" transform="translate(179,176)"/>
</svg>
